<?xml version="1.0" encoding="utf-8"?>
<!-- Generator: Adobe Illustrator 19.1.0, SVG Export Plug-In . SVG Version: 6.00 Build 0)  -->
<!DOCTYPE svg PUBLIC "-//W3C//DTD SVG 1.1//EN" "http://www.w3.org/Graphics/SVG/1.1/DTD/svg11.dtd">
<svg version="1.1" id="Layer_1" xmlns="http://www.w3.org/2000/svg" xmlns:xlink="http://www.w3.org/1999/xlink" x="0px" y="0px"
	 viewBox="-31 33 48 48" style="enable-background:new -31 33 48 48;" xml:space="preserve">
<style type="text/css">
	.st0{fill:#FFFFFF;}
</style>
<path class="st0" d="M9,37h-24c-2.2,0-4,1.8-4,4v24c0,2.2,1.8,4,4,4H9c2.2,0,4-1.8,4-4V41C13,38.8,11.2,37,9,37z M5,47h-6v11
	c0,2.8-2.2,5-5,5s-5-2.2-5-5s2.2-5,5-5c1.1,0,2.2,0.4,3,1V43h8V47z M-23,45h-4v28c0,2.2,1.8,4,4,4H5v-4h-28V45z"/>
</svg>
