<?xml version="1.0" encoding="utf-8"?>
<!-- Generator: Adobe Illustrator 19.1.0, SVG Export Plug-In . SVG Version: 6.00 Build 0)  -->
<!DOCTYPE svg PUBLIC "-//W3C//DTD SVG 1.1//EN" "http://www.w3.org/Graphics/SVG/1.1/DTD/svg11.dtd">
<svg version="1.1" id="Layer_1" xmlns="http://www.w3.org/2000/svg" xmlns:xlink="http://www.w3.org/1999/xlink" x="0px" y="0px"
	 viewBox="-31 33 48 48" style="enable-background:new -31 33 48 48;" xml:space="preserve">
<style type="text/css">
	.st0{fill:#FFFFFF;}
	.st1{fill:none;}
</style>
<path class="st0" d="M7,37h-8.4c-0.8-2.3-3-4-5.6-4s-4.8,1.7-5.6,4H-21c-2.2,0-4,1.8-4,4v32c0,2.2,1.8,4,4,4H7c2.2,0,4-1.8,4-4V41
	C11,38.8,9.2,37,7,37z M-7,37c1.1,0,2,0.9,2,2s-0.9,2-2,2s-2-0.9-2-2S-8.1,37-7,37z M7,73h-28V41h4v6H3v-6h4V73z"/>
<path class="st1" d="M-31,33h48v48h-48V33z"/>
</svg>
